# xmcd CD database file
#
# Track frame offsets:
#	150
#	19706
#	39384
#	63118
#	80758
#	96245
#	110951
#	133156
#	145871
#	170448
#	189821
#	213774
#	229918
#	247027
#	265906
#	287153
#	298191
#
# Disc length: 4264 seconds
#
# Revision: 2
# Processed by: cddbd v1.5.2PL0 Copyright (c) Steve Scherf et al.
# Submitted via: CDex 1.70beta2
#
DISCID=0010a611
DTITLE=Various Artist - Heat Is On 2003 發燒專門店2003
DYEAR=2003
DGENRE=New Age
TTITLE0=張中立《白屋之戀》[海灘] 
TTITLE1=情定左岸 [自己的搖籃曲] 
TTITLE2=班得瑞《微風山谷》[靜靜的雪] 
TTITLE3=巴黎情人 [佳人在營地] 
TTITLE4=時間咖啡館 [新天堂樂團] 
TTITLE5=華麗冒險 [思念隨風飄] 
TTITLE6=黎明時刻 [甦醒] 
TTITLE7=流金歲月 [垂直的海平面] 
TTITLE8=夢回愛爾蘭 [起航] 
TTITLE9=情歌瑪奇朵 [Bad Boy] 
TTITLE10=謬思女神 [小提琴女神] 
TTITLE11=龍笛 [米塔羅之歌] 
TTITLE12=禁忌遊戲 [世事該怎樣，就怎樣]
TTITLE13=淡藍筆記本 [藍孩子的新玩具]
TTITLE14=我愛巴莎諾瓦 [空無一物] 
TTITLE15=紅色極光 [玻利維亞] 
TTITLE16=你是我永遠的春天 [我心深處] 
EXTD=YEAR: 2003
EXTT0=
EXTT1=
EXTT2=
EXTT3=
EXTT4=
EXTT5=
EXTT6=
EXTT7=
EXTT8=
EXTT9=
EXTT10=
EXTT11=
EXTT12=
EXTT13=
EXTT14=
EXTT15=
EXTT16=
PLAYORDER=
